<svg width="25" height="23" viewBox="0 0 25 23" fill="none" xmlns="http://www.w3.org/2000/svg">
    <path d="M12.1822 1.93799C6.3596 1.93799 1.61963 5.75799 1.61963 10.4539C1.61963 15.1498 6.3596 18.9698 12.1822 18.9698C13.2716 18.9687 14.3556 18.8295 15.4038 18.5562L19.0545 20.6974C19.1542 20.7563 19.2692 20.7894 19.3876 20.7933C19.5059 20.7972 19.6232 20.7716 19.7271 20.7194C19.8311 20.6671 19.9179 20.5901 19.9784 20.4963C20.0389 20.4025 20.071 20.2955 20.0712 20.1864V16.0927C20.8972 15.3625 21.5564 14.4875 22.0099 13.5191C22.4634 12.5508 22.702 11.5086 22.7118 10.4539C22.7448 5.75799 18.0049 1.93799 12.1822 1.93799ZM18.9753 15.3871C18.9089 15.4438 18.8559 15.5125 18.8196 15.5889C18.7833 15.6652 18.7643 15.7477 18.7641 15.8311V19.0793L15.8725 17.3822C15.7919 17.3352 15.7011 17.3049 15.6065 17.2934C15.512 17.2818 15.4158 17.2893 15.3246 17.3153C14.3071 17.6065 13.2477 17.7542 12.1822 17.7533C7.08578 17.7533 2.93995 14.4807 2.93995 10.4539C2.93995 6.4271 7.08578 3.15455 12.1822 3.15455C17.2787 3.15455 21.4245 6.4271 21.4245 10.4539C21.4095 11.3877 21.184 12.3083 20.7624 13.1576C20.3407 14.0068 19.7322 14.766 18.9753 15.3871Z" fill="#EB5757"/>
    <path d="M12.1823 12.9661C12.3574 12.9661 12.5253 12.902 12.6491 12.7879C12.7729 12.6739 12.8424 12.5192 12.8424 12.3578V5.5755C12.8424 5.41418 12.7729 5.25946 12.6491 5.14539C12.5253 5.03131 12.3574 4.96722 12.1823 4.96722C12.0072 4.96722 11.8393 5.03131 11.7155 5.14539C11.5917 5.25946 11.5221 5.41418 11.5221 5.5755V12.3457C11.5203 12.4266 11.5361 12.507 11.5685 12.5822C11.6009 12.6574 11.6493 12.7259 11.7107 12.7837C11.7722 12.8414 11.8456 12.8873 11.9265 12.9187C12.0075 12.95 12.0945 12.9661 12.1823 12.9661Z" fill="#EB5757"/>
    <path d="M12.1822 15.8494C12.6671 15.8494 13.0602 15.4872 13.0602 15.0404C13.0602 14.5936 12.6671 14.2314 12.1822 14.2314C11.6973 14.2314 11.3042 14.5936 11.3042 15.0404C11.3042 15.4872 11.6973 15.8494 12.1822 15.8494Z" fill="#EB5757"/>
</svg>
